<?xml version="1.0" encoding="UTF-8" standalone="no"?>
<!DOCTYPE svg PUBLIC "-//W3C//DTD SVG 1.1//EN" "http://www.w3.org/Graphics/SVG/1.1/DTD/svg11.dtd">
<svg width="100%" height="100%" viewBox="0 0 22489 12147" version="1.1" xmlns="http://www.w3.org/2000/svg" xmlns:xlink="http://www.w3.org/1999/xlink" xml:space="preserve" xmlns:serif="http://www.serif.com/" style="fill-rule:evenodd;clip-rule:evenodd;stroke-linejoin:round;stroke-miterlimit:1.41421;">
    <g transform="matrix(1,0,0,1,-4378,-27963.2)">
        <g id="Finished" transform="matrix(1.73593,0,0,1,-3221.91,28334.2)">
            <rect x="4378" y="-371" width="12955" height="12147" style="fill:none;"/>
            <g transform="matrix(0.576059,-5.55112e-17,0,1,1856.01,-14917.6)">
                <g>
                    <path d="M26461.4,23586.7C26461.4,23586.7 21623,26380.2 21623,26380.2C21467.8,26452.8 21362.2,26494 21323.1,26494C21284,26494 21178.4,26452.8 21023.3,26380.2L16484.6,23759.8C16344.2,23661.7 16255.7,23590.9 16236.2,23557C16216.6,23523.1 16199.5,23411.1 16184.8,23240.5L16184.8,17999.7C16199.5,17829 16216.6,17717 16236.2,17683.1C16255.7,17649.3 16344.2,17578.4 16484.6,17480.4L21023.3,14860C21178.4,14787.4 21284,14746.2 21323.1,14746.2C21362.2,14746.2 21467.8,14787.4 21623,14860L26461.4,17653.5L23900,19142.6L21337,17661.5L18767.9,19144.8L18767.9,22111.4L21337,23594.7L23907,22111.4L26461.4,23586.7Z" style="fill:white;fill-opacity:0.427451;"/>
                    <clipPath id="_clip1">
                        <path d="M26461.4,23586.7C26461.4,23586.7 21623,26380.2 21623,26380.2C21467.8,26452.8 21362.2,26494 21323.1,26494C21284,26494 21178.4,26452.8 21023.3,26380.2L16484.6,23759.8C16344.2,23661.7 16255.7,23590.9 16236.2,23557C16216.6,23523.1 16199.5,23411.1 16184.8,23240.5L16184.8,17999.7C16199.5,17829 16216.6,17717 16236.2,17683.1C16255.7,17649.3 16344.2,17578.4 16484.6,17480.4L21023.3,14860C21178.4,14787.4 21284,14746.2 21323.1,14746.2C21362.2,14746.2 21467.8,14787.4 21623,14860L26461.4,17653.5L23900,19142.6L21337,17661.5L18767.9,19144.8L18767.9,22111.4L21337,23594.7L23907,22111.4L26461.4,23586.7Z"/>
                    </clipPath>
                    <g clip-path="url(#_clip1)">
                        <g transform="matrix(43.5113,-75.3638,75.3638,43.5113,18109.5,18046.1)">
                            <g transform="matrix(-0.866025,-0.5,0.5,-0.866025,94.8806,188.454)">
                                <g transform="matrix(-12.6014,-21.8262,3.54676,-2.04772,468.084,815.64)">
                                    <rect x="27.839" y="11.094" width="7.209" height="7.209" style="fill:rgb(152,30,50);fill-opacity:0.701961;"/>
                                </g>
                                <g transform="matrix(-12.6014,-21.8262,3.54676,-2.04772,493.651,800.879)">
                                    <rect x="27.839" y="11.094" width="7.209" height="7.209" style="fill:rgb(152,30,50);fill-opacity:0.501961;"/>
                                </g>
                                <g transform="matrix(-12.6014,-21.8262,3.54676,-2.04772,519.219,786.118)">
                                    <rect x="27.839" y="11.094" width="7.209" height="7.209" style="fill:rgb(152,30,50);fill-opacity:0.301961;"/>
                                </g>
                                <g transform="matrix(-12.6014,-21.8262,3.54676,-2.04772,544.786,771.356)">
                                    <rect x="27.839" y="11.094" width="7.209" height="7.209" style="fill:rgb(152,30,50);fill-opacity:0.101961;"/>
                                </g>
                            </g>
                            <g transform="matrix(-1.06086,-0.612489,-0.552237,0.956503,195.682,47.3266)">
                                <g transform="matrix(-22.8131,5.32907e-15,-1.77636e-15,-3.70713,856.028,185.974)">
                                    <rect x="27.839" y="11.094" width="7.209" height="7.209" style="fill:rgb(100,100,100);fill-opacity:0.701961;"/>
                                </g>
                                <g transform="matrix(-22.8131,5.32907e-15,-1.77636e-15,-3.70713,856.028,159.251)">
                                    <rect x="27.839" y="11.094" width="7.209" height="7.209" style="fill:rgb(100,100,100);fill-opacity:0.639216;"/>
                                </g>
                                <g transform="matrix(-22.8131,5.32907e-15,-1.77636e-15,-3.70713,856.028,132.527)">
                                    <rect x="27.839" y="11.094" width="7.209" height="7.209" style="fill:rgb(100,100,100);fill-opacity:0.501961;"/>
                                </g>
                                <g transform="matrix(-22.8131,5.32907e-15,-1.77636e-15,-3.70713,856.028,105.803)">
                                    <rect x="27.839" y="11.094" width="7.209" height="7.209" style="fill:rgb(100,100,100);fill-opacity:0.301961;"/>
                                </g>
                            </g>
                        </g>
                    </g>
                </g>
            </g>
            <g transform="matrix(0.576059,-5.55112e-17,0,1,1856.01,-14917.6)">
                <g>
                    <path d="M15573.4,23586.7C15573.4,23586.7 10735,26380.2 10735,26380.2C10579.8,26452.8 10474.2,26494 10435.1,26494C10396,26494 10290.4,26452.8 10135.3,26380.2L5596.61,23759.8C5456.16,23661.7 5367.74,23590.9 5348.18,23557C5328.61,23523.1 5311.48,23411.1 5296.79,23240.5L5296.79,17999.7C5311.48,17829 5328.61,17717 5348.18,17683.1C5367.74,17649.3 5456.16,17578.4 5596.61,17480.4L10135.3,14860C10290.4,14787.4 10396,14746.2 10435.1,14746.2C10474.2,14746.2 10579.8,14787.4 10735,14860L15573.4,17653.5L13012,19142.6L10449,17661.5L7879.85,19144.8L7879.85,22111.4L10449,23594.7L13019,22111.4L15573.4,23586.7Z" style="fill:white;fill-opacity:0.427451;"/>
                    <clipPath id="_clip2">
                        <path d="M15573.4,23586.7C15573.4,23586.7 10735,26380.2 10735,26380.2C10579.8,26452.8 10474.2,26494 10435.1,26494C10396,26494 10290.4,26452.8 10135.3,26380.2L5596.61,23759.8C5456.16,23661.7 5367.74,23590.9 5348.18,23557C5328.61,23523.1 5311.48,23411.1 5296.79,23240.5L5296.79,17999.7C5311.48,17829 5328.61,17717 5348.18,17683.1C5367.74,17649.3 5456.16,17578.4 5596.61,17480.4L10135.3,14860C10290.4,14787.4 10396,14746.2 10435.1,14746.2C10474.2,14746.2 10579.8,14787.4 10735,14860L15573.4,17653.5L13012,19142.6L10449,17661.5L7879.85,19144.8L7879.85,22111.4L10449,23594.7L13019,22111.4L15573.4,23586.7Z"/>
                    </clipPath>
                    <g clip-path="url(#_clip2)">
                        <g transform="matrix(43.5113,-75.3638,75.3638,43.5113,7221.53,18046.1)">
                            <g transform="matrix(-1.06086,-0.612489,-0.552237,0.956503,195.682,47.3266)">
                                <g transform="matrix(-22.8131,5.32907e-15,-1.77636e-15,-3.70713,856.028,185.974)">
                                    <rect x="27.839" y="11.094" width="7.209" height="7.209" style="fill:rgb(100,100,100);fill-opacity:0.701961;"/>
                                </g>
                                <g transform="matrix(-22.8131,5.32907e-15,-1.77636e-15,-3.70713,856.028,159.251)">
                                    <rect x="27.839" y="11.094" width="7.209" height="7.209" style="fill:rgb(100,100,100);fill-opacity:0.639216;"/>
                                </g>
                                <g transform="matrix(-22.8131,5.32907e-15,-1.77636e-15,-3.70713,856.028,132.527)">
                                    <rect x="27.839" y="11.094" width="7.209" height="7.209" style="fill:rgb(100,100,100);fill-opacity:0.501961;"/>
                                </g>
                                <g transform="matrix(-22.8131,5.32907e-15,-1.77636e-15,-3.70713,856.028,105.803)">
                                    <rect x="27.839" y="11.094" width="7.209" height="7.209" style="fill:rgb(100,100,100);fill-opacity:0.301961;"/>
                                </g>
                            </g>
                            <g transform="matrix(-0.866025,-0.5,0.5,-0.866025,94.8806,188.454)">
                                <g transform="matrix(-12.6014,-21.8262,3.54676,-2.04772,468.084,815.64)">
                                    <rect x="27.839" y="11.094" width="7.209" height="7.209" style="fill:rgb(152,30,50);fill-opacity:0.701961;"/>
                                </g>
                                <g transform="matrix(-12.6014,-21.8262,3.54676,-2.04772,493.651,800.879)">
                                    <rect x="27.839" y="11.094" width="7.209" height="7.209" style="fill:rgb(152,30,50);fill-opacity:0.501961;"/>
                                </g>
                                <g transform="matrix(-12.6014,-21.8262,3.54676,-2.04772,519.219,786.118)">
                                    <rect x="27.839" y="11.094" width="7.209" height="7.209" style="fill:rgb(152,30,50);fill-opacity:0.301961;"/>
                                </g>
                                <g transform="matrix(-12.6014,-21.8262,3.54676,-2.04772,544.786,771.356)">
                                    <rect x="27.839" y="11.094" width="7.209" height="7.209" style="fill:rgb(152,30,50);fill-opacity:0.101961;"/>
                                </g>
                            </g>
                        </g>
                    </g>
                </g>
            </g>
        </g>
    </g>
</svg>
