<?xml version="1.0" encoding="UTF-8" standalone="no"?>
<!DOCTYPE svg PUBLIC "-//W3C//DTD SVG 1.1//EN" "http://www.w3.org/Graphics/SVG/1.1/DTD/svg11.dtd">
<svg width="100%" height="100%" viewBox="0 0 28353 28353" version="1.1" xmlns="http://www.w3.org/2000/svg" xmlns:xlink="http://www.w3.org/1999/xlink" xml:space="preserve" xmlns:serif="http://www.serif.com/" style="fill-rule:evenodd;clip-rule:evenodd;stroke-linejoin:round;stroke-miterlimit:1.41421;">
    <g transform="matrix(1,0,0,1,-95896,-11758)">
        <g id="Cutout-with-outline" serif:id="Cutout with outline" transform="matrix(1,0,0,1,62185,0)">
            <rect x="33711" y="11758" width="28352.2" height="28352.2" style="fill:none;"/>
            <g transform="matrix(1,0,0,1,-62185,0)">
                <path d="M109812,12946.5C109930,12905.5 110018,12883.7 110072,12883.7C110126,12883.7 110214,12905.5 110333,12946.5L121189,19214.7C121284,19296.7 121347,19362.2 121374,19408.9C121401,19455.6 121426,19542.9 121450,19665.9L121450,32202.3C121426,32325.3 121401,32412.6 121374,32459.3C121347,32506 121284,32571.5 121189,32653.5L110333,38921.7C110214,38962.7 110126,38984.5 110072,38984.5C110018,38984.5 109930,38962.7 109812,38921.7L98954.8,32653.5C98860.1,32571.5 98797.1,32506 98770.1,32459.3C98743.2,32412.6 98717.9,32325.3 98694.3,32202.3L98694.3,19665.9C98717.9,19542.9 98743.2,19455.6 98770.1,19408.9C98797.1,19362.2 98860.1,19296.7 98954.8,19214.7L109812,12946.5ZM120654,28900.7C120654,28900.7 115816,31694.2 115816,31694.2C115661,31766.8 115555,31808 115516,31808C115477,31808 115371,31766.8 115216,31694.2L110678,29073.8C110537,28975.8 110449,28904.9 110429,28871C110410,28837.2 110392,28725.2 110378,28554.5L110378,23313.7C110392,23143 110410,23031 110429,22997.2C110449,22963.3 110537,22892.4 110678,22794.4L115216,20174C115371,20101.4 115477,20060.2 115516,20060.2C115555,20060.2 115661,20101.4 115816,20174L120654,22967.5L118093,24456.7L115530,22975.5L112961,24458.8L112961,27425.4L115530,28908.7L118100,27425.4L120654,28900.7ZM109766,28900.7C109766,28900.7 104928,31694.2 104928,31694.2C104773,31766.8 104667,31808 104628,31808C104589,31808 104483,31766.8 104328,31694.2L99789.6,29073.8C99649.1,28975.8 99560.7,28904.9 99541.2,28871C99521.6,28837.2 99504.5,28725.2 99489.8,28554.5L99489.8,23313.7C99504.5,23143 99521.6,23031 99541.2,22997.2C99560.7,22963.3 99649.1,22892.4 99789.6,22794.4L104328,20174C104483,20101.4 104589,20060.2 104628,20060.2C104667,20060.2 104773,20101.4 104928,20174L109766,22967.5L107205,24456.7L104642,22975.5L102073,24458.8L102073,27425.4L104642,28908.7L107212,27425.4L109766,28900.7Z" style="fill:white;"/>
                <clipPath id="_clip1">
                    <path d="M109812,12946.5C109930,12905.5 110018,12883.7 110072,12883.7C110126,12883.7 110214,12905.5 110333,12946.5L121189,19214.7C121284,19296.7 121347,19362.2 121374,19408.9C121401,19455.6 121426,19542.9 121450,19665.9L121450,32202.3C121426,32325.3 121401,32412.6 121374,32459.3C121347,32506 121284,32571.5 121189,32653.5L110333,38921.7C110214,38962.7 110126,38984.5 110072,38984.5C110018,38984.5 109930,38962.7 109812,38921.7L98954.8,32653.5C98860.1,32571.5 98797.1,32506 98770.1,32459.3C98743.2,32412.6 98717.9,32325.3 98694.3,32202.3L98694.3,19665.9C98717.9,19542.9 98743.2,19455.6 98770.1,19408.9C98797.1,19362.2 98860.1,19296.7 98954.8,19214.7L109812,12946.5ZM120654,28900.7C120654,28900.7 115816,31694.2 115816,31694.2C115661,31766.8 115555,31808 115516,31808C115477,31808 115371,31766.8 115216,31694.2L110678,29073.8C110537,28975.8 110449,28904.9 110429,28871C110410,28837.2 110392,28725.2 110378,28554.5L110378,23313.7C110392,23143 110410,23031 110429,22997.2C110449,22963.3 110537,22892.4 110678,22794.4L115216,20174C115371,20101.4 115477,20060.2 115516,20060.2C115555,20060.2 115661,20101.4 115816,20174L120654,22967.5L118093,24456.7L115530,22975.5L112961,24458.8L112961,27425.4L115530,28908.7L118100,27425.4L120654,28900.7ZM109766,28900.7C109766,28900.7 104928,31694.2 104928,31694.2C104773,31766.8 104667,31808 104628,31808C104589,31808 104483,31766.8 104328,31694.2L99789.6,29073.8C99649.1,28975.8 99560.7,28904.9 99541.2,28871C99521.6,28837.2 99504.5,28725.2 99489.8,28554.5L99489.8,23313.7C99504.5,23143 99521.6,23031 99541.2,22997.2C99560.7,22963.3 99649.1,22892.4 99789.6,22794.4L104328,20174C104483,20101.4 104589,20060.2 104628,20060.2C104667,20060.2 104773,20101.4 104928,20174L109766,22967.5L107205,24456.7L104642,22975.5L102073,24458.8L102073,27425.4L104642,28908.7L107212,27425.4L109766,28900.7Z"/>
                </clipPath>
                <g clip-path="url(#_clip1)">
                    <g transform="matrix(213.037,0,0,213.037,80962.2,6169.95)">
                        <g transform="matrix(-0.866025,0.5,0.5,0.866025,213.115,-57.1039)">
                            <g transform="matrix(-22.8131,5.32907e-15,-1.77636e-15,-3.70713,856.028,185.974)">
                                <rect x="27.839" y="11.094" width="7.209" height="7.209" style="fill:rgb(100,100,100);fill-opacity:0.701961;"/>
                            </g>
                            <g transform="matrix(-22.8131,5.32907e-15,-1.77636e-15,-3.70713,856.028,159.251)">
                                <rect x="27.839" y="11.094" width="7.209" height="7.209" style="fill:rgb(100,100,100);fill-opacity:0.639216;"/>
                            </g>
                            <g transform="matrix(-22.8131,5.32907e-15,-1.77636e-15,-3.70713,856.028,132.527)">
                                <rect x="27.839" y="11.094" width="7.209" height="7.209" style="fill:rgb(100,100,100);fill-opacity:0.501961;"/>
                            </g>
                            <g transform="matrix(-22.8131,5.32907e-15,-1.77636e-15,-3.70713,856.028,105.803)">
                                <rect x="27.839" y="11.094" width="7.209" height="7.209" style="fill:rgb(100,100,100);fill-opacity:0.301961;"/>
                            </g>
                        </g>
                        <g transform="matrix(1.11022e-16,1,-1,1.11022e-16,230.099,-44.8312)">
                            <g transform="matrix(11.4066,-19.7567,3.21047,1.85357,-301.87,665.339)">
                                <rect x="27.839" y="11.094" width="7.209" height="7.209" style="fill:rgb(152,30,50);fill-opacity:0.701961;"/>
                            </g>
                            <g transform="matrix(11.4066,-19.7567,3.21047,1.85357,-278.727,678.701)">
                                <rect x="27.839" y="11.094" width="7.209" height="7.209" style="fill:rgb(152,30,50);fill-opacity:0.501961;"/>
                            </g>
                            <g transform="matrix(11.4066,-19.7567,3.21047,1.85357,-255.583,692.063)">
                                <rect x="27.839" y="11.094" width="7.209" height="7.209" style="fill:rgb(152,30,50);fill-opacity:0.301961;"/>
                            </g>
                            <g transform="matrix(11.4066,-19.7567,3.21047,1.85357,-232.44,705.425)">
                                <rect x="27.839" y="11.094" width="7.209" height="7.209" style="fill:rgb(152,30,50);fill-opacity:0.101961;"/>
                            </g>
                        </g>
                    </g>
                </g>
            </g>
        </g>
    </g>
</svg>
